<svg width="213" height="102" viewBox="0 0 213 102" fill="none" xmlns="http://www.w3.org/2000/svg">
<path d="M0.637207 27.6416H16.6006V74.9801H11.3018V28.9277H5.93605V74.9801H0.637207V27.6416Z" fill="#B9916A"/>
<path d="M37.5236 48.3671C40.2854 48.3671 42.2778 49.3245 43.501 51.2442C44.7242 53.1638 45.3357 55.6789 45.3357 58.7941V64.7531C45.3357 66.287 45.1207 67.6779 44.6907 68.9164C44.2607 70.1596 43.673 71.2314 42.9228 72.1316C42.1775 73.0367 41.3031 73.7369 40.3092 74.2323C39.3106 74.7277 38.226 74.9754 37.0506 74.9754H29.3723V27.6416H34.6712V48.3671H37.5236ZM40.0369 58.3226C40.0369 55.1168 39.755 52.8685 39.1864 51.5824C38.6178 50.2963 37.7482 49.6532 36.5728 49.6532H34.6712V73.6273H36.5728C37.5236 73.6273 38.3407 73.0271 39.0192 71.8315C39.6977 70.6359 40.0369 68.4352 40.0369 65.2295V58.3226Z" fill="#B9916A"/>
<path d="M68.7767 27.6416V28.9277H62.3216V50.1248H67.4149V51.4776H62.3216V73.6893H68.7767V74.9754H57.0896V27.6416H68.7767Z" fill="#B9916A"/>
<path d="M87.6595 27.709C90.1059 27.709 92.0983 28.5473 93.6368 30.2145C95.1753 31.8865 95.9446 34.0729 95.9446 36.7832V43.6901C95.9446 46.4434 95.1849 48.6345 93.6703 50.2589C92.1509 51.8832 90.1489 52.6977 87.6595 52.6977H85.8916V74.9808H80.5928V27.709H87.6595ZM90.6505 36.0401C90.6505 33.3774 90.4355 31.5387 90.0055 30.5194C89.5755 29.5048 88.7728 28.9951 87.5926 28.9951H85.8964V51.4116H87.6643C88.8397 51.4116 89.6328 50.9353 90.0437 49.9873C90.4499 49.0394 90.6553 47.2341 90.6553 44.5714V36.0401H90.6505Z" fill="#B9916A"/>
<path d="M128.354 74.9801H123.055V37.5971L123.189 34.8867H122.711L122.577 37.5971L117.89 74.9801H115.444L108.649 37.5971L108.31 34.8867H107.832L108.038 37.5971V74.9801H106.681V27.6416H112.386L117.618 58.0511L117.957 60.7614H118.435L118.569 58.0511L122.511 27.6416H128.354V74.9801Z" fill="#B9916A"/>
<path d="M140.849 27.3224C140.849 26.0125 141.064 24.7931 141.494 23.6642C141.924 22.5352 142.502 21.554 143.228 20.7204C143.954 19.8868 144.814 19.2199 145.808 18.7245C146.802 18.2291 147.868 17.9814 149 17.9814C150.132 17.9814 151.25 18.2291 152.225 18.7245C153.2 19.2199 154.06 19.8868 154.805 20.7204C155.551 21.5587 156.129 22.54 156.54 23.6642C156.946 24.7931 157.151 26.0125 157.151 27.3224V65.7201C157.151 66.9824 156.946 68.1828 156.54 69.3117C156.134 70.4406 155.555 71.4362 154.805 72.2936C154.06 73.151 153.195 73.8179 152.225 74.2894C151.25 74.7658 150.175 74.9992 149 74.9992C147.825 74.9992 146.802 74.761 145.808 74.2894C144.81 73.8131 143.94 73.151 143.195 72.2936C142.449 71.4362 141.871 70.4406 141.46 69.3117C141.054 68.1828 140.849 66.9872 140.849 65.7201V27.3224ZM146.152 69.3117C146.152 72.2031 147.103 73.6464 149.005 73.6464C150.906 73.6464 151.857 72.2031 151.857 69.3117V24.1405C151.857 20.9347 150.906 19.3342 149.005 19.3342C147.103 19.3342 146.152 20.9395 146.152 24.1405V69.3069V69.3117Z" fill="#B9916A"/>
<path d="M174.749 27.709V50.7352H180.115V27.709H185.413V74.9808H180.115V52.0213H174.749V74.9808H169.45V27.709H174.749Z" fill="#B9916A"/>
<path d="M212.925 28.9277H207.082V74.9801H201.783V28.9277H195.939V27.6416H212.921V28.9277H212.925Z" fill="#B9916A"/>
<path d="M147.271 12.0993L153.444 0.75293H160.047L151.633 12.0993H147.271Z" fill="#B9916A"/>
</svg>
