<svg width="126" height="61" viewBox="0 0 126 61" fill="none" xmlns="http://www.w3.org/2000/svg">
<path d="M0 16.4595H9.47482V44.5564H6.32978V17.2228H3.14504V44.5564H0V16.4595Z" fill="white"/>
<path d="M21.8933 28.7607C23.5324 28.7607 24.715 29.329 25.441 30.4684C26.167 31.6077 26.53 33.1005 26.53 34.9495V38.4864C26.53 39.3968 26.4024 40.2223 26.1471 40.9574C25.8919 41.6953 25.5431 42.3314 25.0979 42.8658C24.6554 43.4029 24.1365 43.8185 23.5466 44.1126C22.9539 44.4066 22.3101 44.5536 21.6125 44.5536H17.0552V16.4595H20.2002V28.7607H21.8933ZM23.385 34.6696C23.385 32.7669 23.2176 31.4325 22.8802 30.6691C22.5427 29.9058 22.0265 29.5241 21.3289 29.5241H20.2002V43.7535H21.3289C21.8933 43.7535 22.3782 43.3973 22.7809 42.6876C23.1836 41.978 23.385 40.6718 23.385 38.7691V34.6696Z" fill="white"/>
<path d="M40.443 16.4595V17.2228H36.6117V29.804H39.6348V30.6069H36.6117V43.7903H40.443V44.5536H33.5063V16.4595H40.443Z" fill="white"/>
<path d="M51.6506 16.4995C53.1026 16.4995 54.2852 16.9971 55.1984 17.9866C56.1115 18.979 56.5681 20.2767 56.5681 21.8854V25.9849C56.5681 27.619 56.1172 28.9195 55.2182 29.8836C54.3164 30.8477 53.1281 31.3311 51.6506 31.3311H50.6013V44.5569H47.4563V16.4995H51.6506ZM53.4259 21.4443C53.4259 19.8639 53.2983 18.7726 53.0431 18.1676C52.7878 17.5654 52.3114 17.2629 51.6109 17.2629H50.6042V30.5678H51.6535C52.3511 30.5678 52.8219 30.2851 53.0658 29.7224C53.3068 29.1598 53.4287 28.0883 53.4287 26.5079V21.4443H53.4259Z" fill="white"/>
<path d="M75.8042 44.5564H72.6591V22.3684L72.7385 20.7597H72.4549L72.3755 22.3684L69.5935 44.5564H68.1415L64.1088 22.3684L63.9075 20.7597H63.6239L63.7458 22.3684V44.5564H62.9404V16.4595H66.3265L69.4319 34.5085L69.6332 36.1172H69.9168L69.9962 34.5085L72.3358 16.4595H75.8042V44.5564Z" fill="white"/>
<path d="M83.2202 16.2703C83.2202 15.4928 83.3478 14.769 83.6031 14.099C83.8583 13.4289 84.2014 12.8465 84.6325 12.3517C85.0636 11.857 85.574 11.4612 86.1639 11.1671C86.7538 10.8731 87.3862 10.7261 88.0583 10.7261C88.7304 10.7261 89.394 10.8731 89.9725 11.1671C90.5511 11.4612 91.0615 11.857 91.5039 12.3517C91.9463 12.8493 92.2895 13.4317 92.5334 14.099C92.7744 14.769 92.8964 15.4928 92.8964 16.2703V39.0605C92.8964 39.8097 92.7744 40.5222 92.5334 41.1923C92.2923 41.8623 91.9492 42.4532 91.5039 42.9621C91.0615 43.471 90.5482 43.8668 89.9725 44.1467C89.394 44.4294 88.7559 44.568 88.0583 44.568C87.3607 44.568 86.7538 44.4266 86.1639 44.1467C85.5712 43.864 85.055 43.471 84.6126 42.9621C84.1702 42.4532 83.8271 41.8623 83.5832 41.1923C83.3422 40.5222 83.2202 39.8126 83.2202 39.0605V16.2703ZM86.3681 41.1923C86.3681 42.9084 86.9324 43.765 88.0611 43.765C89.1898 43.765 89.7542 42.9084 89.7542 41.1923V14.3817C89.7542 12.479 89.1898 11.529 88.0611 11.529C86.9324 11.529 86.3681 12.4818 86.3681 14.3817V41.1894V41.1923Z" fill="white"/>
<path d="M103.341 16.4995V30.1663H106.526V16.4995H109.671V44.5569H106.526V30.9297H103.341V44.5569H100.196V16.4995H103.341Z" fill="white"/>
<path d="M126 17.2228H122.532V44.5564H119.387V17.2228H115.918V16.4595H125.997V17.2228H126Z" fill="white"/>
<path d="M87.0317 7.23445L90.6957 0.5H94.615L89.6209 7.23445H87.0317Z" fill="white"/>
</svg>
